<svg id="Layer_1" xmlns="http://www.w3.org/2000/svg" version="1.1" viewBox="200 80 220 70">
  <defs>
    <style>
      .st0 {
        fill: #f15a29;
      }

      .st1 {
        fill: none;
        stroke: #ffffff;
        stroke-miterlimit: 10;
      }

      .st2 {
        fill: #ffffff;
      }

      .st3 {
        fill: #ffffff;
      }
    </style>
  </defs>
  <g>
    <path class="st3" d="M201.28,121.71v-38.68h7.43v15.71h17.88v-15.71h7.43v38.68h-7.43v-16h-17.88v16h-7.43Z"/>
    <path class="st3" d="M254.64,82.63h2.34l18.63,39.08h-8.11l-3.37-7.43h-16.68l-3.37,7.43h-7.94l18.51-39.08ZM261.15,107.66l-5.37-11.88-5.37,11.88h10.74Z"/>
    <path class="st3" d="M277.71,83.03h14.34c8.74,0,13.54,5.48,13.54,12.85,0,4.46-2.86,9.2-7.37,10.68l8.57,15.14h-8.23l-11.08-20.05h4.29c4.11,0,6.4-2.57,6.4-5.77s-2.46-5.88-6.11-5.88h-6.91v31.71h-7.43v-38.68Z"/>
    <path class="st3" d="M323.76,121.88l-18.28-38.85h8.11l11.37,24.91,11.37-24.91h7.94l-18.28,38.85h-2.23Z"/>
    <path class="st3" d="M408.94,121.88l-22.74-23.77v23.6h-7.31v-38.74h2.57l22.85,23.88v-23.82h7.26v38.85h-2.63Z"/>
    <polygon class="st0" points="357.17 98.57 359.05 90.04 372.54 93.01 372.14 85.84 353.34 81.7 349.97 96.99 342.1 95.25 340.58 102.16 348.45 103.89 345.08 119.19 363.89 123.33 367.26 116.99 353.77 114.02 355.65 105.49 371.15 108.91 371.25 108.46 372.58 102.43 372.68 101.98 357.17 98.57"/>
    <g>
      <path class="st2" d="M201.83,143.46v-1.81c.84.59,1.88,1.03,3.04,1.03s2.14-.48,2.14-1.3c0-1.87-4.93-1.3-4.93-4.57,0-1.74,1.4-2.98,3.47-2.98.94,0,2.01.25,2.78.67v1.78c-.78-.51-1.76-.84-2.66-.84-1.06,0-1.88.42-1.88,1.2,0,1.9,4.99,1.24,4.99,4.61,0,1.81-1.45,3.04-3.82,3.04-1.36,0-2.42-.39-3.12-.82Z"/>
      <path class="st2" d="M209.9,140.42c0-2.13,1.69-3.85,3.79-3.85s3.78,1.72,3.78,3.86-1.69,3.85-3.78,3.85-3.79-1.72-3.79-3.86ZM213.69,142.76c1.19,0,2.11-1.04,2.11-2.33s-.93-2.34-2.11-2.34-2.13,1.06-2.13,2.36.94,2.31,2.13,2.31Z"/>
      <path class="st2" d="M219.59,143.46c-.48-.54-.74-1.37-.74-2.4v-4.31h1.69v4.22c0,.54.13,1.13.49,1.48.25.23.62.38,1.06.38,1.13,0,1.79-.9,1.79-2.37v-3.7h1.69v7.36h-1.65v-1.36c-.49,1-1.29,1.53-2.37,1.53-.81,0-1.49-.29-1.97-.82Z"/>
      <path class="st2" d="M227.57,136.74h1.58v1.62c.48-1.16,1.4-1.79,2.71-1.79h.13v1.65c-.16-.03-.33-.04-.52-.04-1.3,0-2.21,1.14-2.21,2.75v3.18h-1.68v-7.36Z"/>
      <path class="st2" d="M232.49,140.42c0-2.07,1.55-3.85,3.79-3.85.65,0,1.45.15,1.97.41v1.55c-.58-.27-1.2-.43-1.78-.43-1.45,0-2.31,1.01-2.31,2.3s.87,2.36,2.36,2.36c.52,0,1.13-.13,1.74-.4v1.55c-.49.25-1.32.39-1.95.39-2.27,0-3.8-1.77-3.8-3.86Z"/>
      <path class="st2" d="M239.78,133.95h1.76v1.53h-1.76v-1.53ZM239.82,136.74h1.68v7.36h-1.68v-7.36Z"/>
      <path class="st2" d="M246.86,138.05c-.97,0-1.69.85-1.69,2.11v3.95h-1.68v-7.36h1.63v1.32c.46-.93,1.32-1.49,2.43-1.49,1.61,0,2.69,1.17,2.69,3.14v4.4h-1.69v-3.95c0-1.33-.64-2.11-1.69-2.11Z"/>
      <path class="st2" d="M252.37,146.22v-1.61c.72.54,1.53.88,2.6.88,1.23,0,2.42-.71,2.42-2.18v-.59c-.56.65-1.35.98-2.23.98-1.92,0-3.44-1.56-3.44-3.56,0-1.88,1.46-3.57,3.37-3.57.93,0,1.75.43,2.33,1.14v-.97h1.58v6.48c0,2.24-1.63,3.76-3.92,3.76-1.16,0-2.07-.32-2.71-.77ZM255.41,142.24c1.11,0,2.03-.8,2.03-2.11,0-1.24-.93-2.13-2.03-2.13s-2,.96-2,2.13c0,1.23.82,2.11,2,2.11Z"/>
      <path class="st2" d="M267.41,144.28c-1.52,0-2.47-.94-2.47-2.81v-3.28h-.98v-1.45h.98v-2.18h1.66v2.18h1.85v1.45h-1.87v3.41c0,.71.39,1.19,1.17,1.19.22,0,.46-.03.69-.13v1.4c-.3.13-.67.22-1.04.22Z"/>
      <path class="st2" d="M273.34,138.05c-.97,0-1.69.85-1.69,2.11v3.95h-1.68v-10.63h1.68v3.27c0,.43-.01.88-.04,1.32.46-.93,1.32-1.49,2.43-1.49,1.61,0,2.69,1.17,2.69,3.14v4.4h-1.69v-3.95c0-1.33-.64-2.11-1.69-2.11Z"/>
      <path class="st2" d="M278.2,140.49c0-2.11,1.46-3.92,3.52-3.92,1.94,0,3.33,1.52,3.33,3.98,0,.14,0,.3-.01.43h-5.28c.09,1.04,1,1.81,2.3,1.81.93,0,1.84-.38,2.58-.98v1.55c-.82.64-1.75.93-2.65.93-2.27,0-3.78-1.68-3.78-3.79ZM283.47,139.7c-.13-1.03-.85-1.75-1.82-1.75s-1.72.72-1.87,1.75h3.69Z"/>
      <path class="st2" d="M289.13,133.98h1.85l2.24,7.61,2.29-7.61h1.94l2.29,7.59,2.27-7.59h1.84l-3.2,10.13h-1.72l-2.44-7.72-2.44,7.72h-1.74l-3.17-10.13Z"/>
      <path class="st2" d="M303.81,140.42c0-2.13,1.69-3.85,3.79-3.85s3.78,1.72,3.78,3.86-1.69,3.85-3.78,3.85-3.79-1.72-3.79-3.86ZM307.6,142.76c1.19,0,2.11-1.04,2.11-2.33s-.93-2.34-2.11-2.34-2.13,1.06-2.13,2.36.94,2.31,2.13,2.31Z"/>
      <path class="st2" d="M312.91,136.74h1.58v1.62c.48-1.16,1.4-1.79,2.71-1.79h.13v1.65c-.16-.03-.33-.04-.52-.04-1.3,0-2.21,1.14-2.21,2.75v3.18h-1.68v-7.36Z"/>
      <path class="st2" d="M318.5,133.48h1.68v10.63h-1.68v-10.63Z"/>
      <path class="st2" d="M321.71,140.42c0-2.16,1.55-3.85,3.43-3.85.91,0,1.75.46,2.36,1.16v-4.25h1.68v10.63h-1.56v-1.07c-.61.74-1.48,1.24-2.37,1.24-1.95,0-3.53-1.68-3.53-3.86ZM325.49,142.78c1.23,0,2.11-1.01,2.11-2.34s-.88-2.37-2.11-2.37-2.07,1.06-2.07,2.37.9,2.34,2.07,2.34Z"/>
      <path class="st2" d="M331.26,133.98h1.91l-1.4,3.39h-.84l.33-3.39Z"/>
      <path class="st2" d="M333.08,143.66v-1.53c.81.48,1.61.74,2.44.74.93,0,1.59-.32,1.59-.78,0-1.14-3.85-.74-3.85-3.21,0-1.42,1.27-2.3,2.88-2.3.71,0,1.53.17,2.14.46v1.48c-.72-.35-1.4-.54-2.05-.54-.8,0-1.46.27-1.46.77,0,1.19,3.91.71,3.91,3.23,0,1.4-1.21,2.31-3.05,2.31-1.11,0-2.04-.33-2.55-.62Z"/>
      <path class="st2" d="M344.03,133.98h4.06c1.78,0,3.1,1.06,3.1,2.69,0,.88-.45,1.66-1.17,2.16.96.45,1.55,1.23,1.55,2.27,0,1.61-1.21,3.01-3.41,3.01h-4.12v-10.13ZM347.91,138.18c.9,0,1.58-.56,1.58-1.42,0-.91-.78-1.27-1.58-1.27h-2.27v2.69h2.27ZM347.86,142.6c1.13,0,2-.52,2-1.5,0-.84-.64-1.42-1.75-1.42h-2.47v2.92h2.23Z"/>
      <path class="st2" d="M352.75,140.49c0-2.11,1.46-3.92,3.51-3.92,1.94,0,3.33,1.52,3.33,3.98,0,.14,0,.3-.01.43h-5.28c.09,1.04,1,1.81,2.3,1.81.93,0,1.84-.38,2.58-.98v1.55c-.82.64-1.75.93-2.65.93-2.27,0-3.78-1.68-3.78-3.79ZM358.01,139.7c-.13-1.03-.85-1.75-1.82-1.75s-1.72.72-1.87,1.75h3.69Z"/>
      <path class="st2" d="M360.59,143.66v-1.53c.81.48,1.61.74,2.44.74.93,0,1.59-.32,1.59-.78,0-1.14-3.85-.74-3.85-3.21,0-1.42,1.27-2.3,2.88-2.3.71,0,1.53.17,2.14.46v1.48c-.72-.35-1.4-.54-2.05-.54-.8,0-1.46.27-1.46.77,0,1.19,3.91.71,3.91,3.23,0,1.4-1.21,2.31-3.05,2.31-1.11,0-2.04-.33-2.55-.62Z"/>
      <path class="st2" d="M370.48,144.28c-1.52,0-2.47-.94-2.47-2.81v-3.28h-.98v-1.45h.98v-2.18h1.66v2.18h1.85v1.45h-1.87v3.41c0,.71.39,1.19,1.17,1.19.22,0,.46-.03.69-.13v1.4c-.3.13-.67.22-1.04.22Z"/>
      <path class="st2" d="M372.79,142.15h1.95v1.95h-1.95v-1.95Z"/>
    </g>
  </g>
</svg>
